<svg width="103" height="90" viewBox="0 0 103 90" fill="none" xmlns="http://www.w3.org/2000/svg">
<mask id="mask0_46425_36" style="mask-type:luminance" maskUnits="userSpaceOnUse" x="0" y="0" width="103" height="90">
<path d="M103 0H0V90H103V0Z" fill="white"/>
</mask>
<g mask="url(#mask0_46425_36)">
<mask id="mask1_46425_36" style="mask-type:luminance" maskUnits="userSpaceOnUse" x="1" y="12" width="91" height="77">
<path d="M1.56039 12.3872H91.4514V88.9829H1.56039V12.3872Z" fill="white"/>
</mask>
<g mask="url(#mask1_46425_36)">
<path d="M19.2148 65.0167C18.337 63.421 13.9673 56.4995 4.17451 56.8485C6.00821 59.6611 11.5776 66.7223 19.3026 65.2561L19.2148 65.0167ZM48.2226 36.1537H52.963V41.31H47.9106V36.1537H48.2226ZM55.2648 36.1537H60.0052V41.31H54.9528V36.1537H55.2648ZM60.0052 43.6837V48.5308H54.9528V43.3644H60.0052V43.6837ZM52.6411 48.5308H47.8909V43.3644H52.9435V48.5308H52.6411ZM39.5028 17.0747C39.093 17.2541 38.6541 17.0747 38.4786 16.6457C38.3129 16.2668 38.4786 15.7881 38.8882 15.6184C41.2682 14.5413 43.7262 13.7435 46.262 13.1949C48.8078 12.6863 51.3633 12.3872 53.9481 12.3872C64.3164 12.3872 73.6801 16.6856 80.4393 23.6071C87.2476 30.5287 91.4123 40.1032 91.4123 50.6749C91.4123 55.8712 90.3882 60.9776 88.418 65.6651C86.477 70.3426 83.6192 74.6212 79.9516 78.2216C79.7859 78.3911 79.6102 78.4809 79.3958 78.4809C78.9666 78.4809 78.6252 78.1318 78.6252 77.6929V42.3771L54.5041 21.3133L29.3004 42.397V64.3386C31.3291 63.7701 32.5482 62.8724 33.631 62.0846C36.4302 60.0799 38.3323 58.7037 48.2909 63.2914C50.2515 64.1889 52.8166 63.8599 55.4015 63.3312C55.1869 62.3738 54.8455 60.7383 54.8163 59.8804V59.7508C54.7771 58.3146 54.7187 56.33 57.2351 55.7316C57.674 55.6318 58.0836 55.8911 58.1714 56.2999C58.1714 56.33 58.2106 56.3499 58.2106 56.3897C58.2495 56.8087 58.8055 60.5885 59.7028 62.4138C59.9563 62.3738 60.2004 62.324 60.4539 62.284C60.4148 61.4962 60.2977 60.1498 60.0247 59.3121C59.8979 58.9229 59.7322 58.3146 59.6151 57.6164C59.4882 56.699 59.4297 55.6717 59.6151 54.7542C59.8295 53.707 60.3271 52.8093 61.3511 52.4204C61.5171 52.3805 61.6633 52.3305 61.8585 52.2907C62.2388 52.2407 62.6094 52.4803 62.6973 52.8592C62.6973 52.8592 63.2922 55.0334 63.8872 57.2275C64.0628 57.8958 64.2969 58.5042 64.5114 59.0826L64.6381 59.3818C64.6773 59.0727 64.6968 58.7336 64.6968 58.4641C64.6968 58.1152 64.6968 57.6963 64.6578 57.2474C64.57 54.9536 64.4432 52.181 67.3205 51.4131C67.7302 51.3233 68.1594 51.5726 68.2568 51.9815C68.2568 52.0314 68.2568 52.0713 68.2862 52.1111C68.2862 52.1111 68.4714 54.3651 68.725 55.3226C68.842 55.8712 69.0664 56.8286 69.1834 57.806C69.3494 58.8532 69.437 59.9702 69.2226 60.7781C69.0469 61.5161 68.5787 63.5507 68.2179 65.2362L68.6276 64.8174C69.9833 63.5108 71.2903 62.2641 72.012 61.6258C74.2945 59.641 77.4352 61.0473 77.4742 61.0473C77.5231 61.0872 77.601 61.1073 77.6499 61.177C77.9913 61.4763 78.0302 61.955 77.7375 62.3041C77.7083 62.3339 68.7544 72.8559 66.5987 74.4615C66.55 74.5115 66.4232 74.5912 66.2965 74.6212V74.6611C65.9551 74.7109 65.2723 74.8405 64.2969 75.05C61.712 75.5188 57.2742 76.3167 55.4989 77.1744C49.7833 80.0268 43.3261 78.2615 38.8589 77.0447C37.7568 76.7554 36.7913 76.4762 36.0206 76.3466C35.5135 76.2568 35.0159 76.1871 34.5283 76.167C34.0211 76.1271 33.5041 76.1271 32.9969 76.1271C32.5874 76.1669 32.2265 75.838 32.1873 75.3991C32.1873 74.9502 32.4995 74.6011 32.9482 74.5713C33.5041 74.5314 34.0796 74.5713 34.6356 74.6011C35.1916 74.6412 35.7671 74.7009 36.3231 74.7907C37.1716 74.9502 38.1567 75.2296 39.2492 75.5188C43.4921 76.6957 49.6369 78.3712 54.8357 75.778C56.7864 74.7907 61.3903 73.9629 64.0629 73.4842C64.9992 73.3147 65.6818 73.195 65.8964 73.1351C66.5305 72.9557 73.4265 64.9968 75.7966 62.2242C74.9968 62.0647 73.8947 62.0946 73.0167 62.8326C72.295 63.4808 71.0562 64.6877 69.7102 65.9941C68.9591 66.7223 68.2179 67.4603 67.4961 68.1185C67.4669 68.1585 67.4472 68.1784 67.4083 68.2182C65.9745 69.5947 64.7357 70.6718 64.2675 70.8213C63.9261 70.9111 62.668 71.1704 61.2146 71.4297C61.1757 71.4297 61.1562 71.4297 61.1562 71.4297C60.3856 71.5593 59.5955 71.689 58.8348 71.7388C57.7813 71.9084 56.7669 71.9582 56.1232 71.9084C56.0354 71.9084 55.9476 71.8686 55.8697 71.8485C55.7427 71.8485 55.6551 71.8087 55.5867 71.7987C54.8163 71.4496 53.2458 70.542 52.4948 70.1033C50.2515 71.1505 47.969 72.6962 47.969 72.6962C47.6276 72.9157 47.1205 72.826 46.9059 72.4769C46.6912 72.0878 46.7791 71.6091 47.1205 71.3897C49.1882 69.9935 52.4948 67.9789 55.0796 67.59C56.445 67.4103 58.981 66.8219 61.2635 66.2135C63.419 65.6052 65.2917 65.0567 65.5356 64.8672C65.5745 64.8373 65.6331 64.7475 65.6623 64.6477C65.7015 64.5579 65.7015 64.4882 65.6623 64.4283C65.6331 64.3387 65.5356 64.2488 65.3601 64.1391C64.9309 63.8798 64.1213 63.7002 62.7754 63.7002C61.7706 63.7002 60.688 63.8599 59.5176 64.0493C59.4882 64.0792 59.4882 64.0792 59.4687 64.0792C58.7859 64.209 58.1033 64.3785 57.401 64.5081C54.0262 65.276 50.5343 66.0241 47.6568 64.7276C38.5175 60.5188 36.8984 61.6557 34.5283 63.3812C33.2115 64.3386 31.69 65.4257 28.8516 66.064C28.793 66.1038 28.6857 66.1038 28.637 66.1038C28.5981 66.1038 28.5784 66.1038 28.5395 66.1038C28.1102 66.1038 27.7688 65.7547 27.7688 65.316V42.0081C27.7688 41.7488 27.8958 41.5294 28.0713 41.3699L54.0262 19.6977C54.3284 19.3984 54.7771 19.4382 55.0503 19.7375L79.9127 41.3998C80.0784 41.5692 80.1662 41.7887 80.1662 42.0081V75.778C83.0826 72.6165 85.3749 68.9861 87.033 65.0567C88.896 60.5587 89.9102 55.6517 89.9102 50.6749C89.9102 40.5421 85.882 31.3565 79.3567 24.7141C72.8705 18.062 63.8677 13.9829 53.9481 13.9829C51.4512 13.9829 48.9932 14.2422 46.545 14.7607C44.1552 15.2494 41.7851 16.0573 39.5028 17.0747ZM60.883 67.939C60.6002 68.3279 59.859 69.2754 58.9323 70.1829C59.4687 70.1232 60.0247 70.0533 60.5416 69.9636L61.8193 67.6997L61.6438 67.7395C61.3903 67.7893 61.1367 67.8791 60.883 67.939ZM56.0549 70.3026C56.8937 69.9637 57.7424 69.2655 58.3666 68.5474C57.1864 68.8365 56.0549 69.056 55.3137 69.1458C55.0307 69.2055 54.6893 69.2754 54.3481 69.3752C54.9528 69.7342 55.6062 70.1032 56.0549 70.3026ZM63.9458 67.0712L62.5021 69.5947C63.146 69.4648 63.6531 69.3752 63.8482 69.2954C64.0334 69.2456 64.9992 68.3379 66.2184 67.1809L66.4719 66.1038C66.1891 66.3233 65.2136 66.7122 63.9458 67.0712ZM66.9987 63.6803C67.301 62.3339 67.6229 60.9975 67.7497 60.429C67.9154 59.8804 67.8375 58.963 67.7107 58.0951C67.5546 57.1078 67.3401 56.2203 67.2523 55.7316C67.0864 55.1531 66.9596 54.2056 66.8719 53.4276C66.1013 54.2554 66.15 55.8513 66.2184 57.1976C66.2573 57.6365 66.2768 58.0951 66.2573 58.5042C66.2184 59.9304 65.7599 61.5261 65.4185 62.4835C65.7015 62.5434 65.9159 62.6731 66.1305 62.7828C66.5695 63.0321 66.8328 63.3511 66.9987 63.6803ZM63.7604 62.1744C63.7994 61.4362 63.458 60.6084 63.1166 59.691C62.9021 59.0526 62.6484 58.3845 62.4632 57.6963C62.1218 56.4196 61.7512 55.0832 61.5365 54.2355C61.3511 54.4549 61.2438 54.7542 61.1562 55.1031C61.0294 55.8013 61.0684 56.659 61.1951 57.3972C61.283 57.9655 61.4098 58.5141 61.5365 58.8333C61.839 59.7808 62.0047 61.2568 62.0339 62.1543C62.2875 62.1543 62.5413 62.1145 62.7948 62.1145C63.1362 62.1344 63.4385 62.1344 63.7604 62.1744ZM58.1714 62.7428C57.5473 61.177 57.0791 58.9431 56.8645 57.6365C56.3182 58.1849 56.3573 59.0327 56.3573 59.6711L56.3963 59.8406C56.3963 60.5786 56.7377 62.0946 56.9328 63.0021L57.0986 62.9622C57.4497 62.9025 57.83 62.8127 58.1714 62.7428ZM73.8555 81.2535C74.1969 81.034 74.7041 81.1238 74.9187 81.4729C75.1722 81.8618 75.0846 82.3406 74.7041 82.56C71.6511 84.6643 68.3057 86.2502 64.8041 87.3472C61.3024 88.4343 57.6546 88.9829 53.9481 88.9829C43.6188 88.9829 34.2552 84.7043 27.4666 77.7827C24.3745 74.5912 21.8192 70.8612 19.9367 66.7422C9.10016 69.1159 2.18474 56.6092 2.18474 56.5694L1.58975 55.5022L2.77971 55.3825C5.68635 55.0832 8.20283 55.4124 10.3584 56.0406C6.17403 53.0486 4.80851 47.5134 4.80851 47.5035L4.59391 46.5859L5.52054 46.5261C10.2316 46.2668 14.3282 50.1265 16.5423 52.7495C16.5033 52.0514 16.5033 51.3532 16.5033 50.695C16.5033 50.2561 16.5033 49.8272 16.5033 49.3885C9.20747 46.3067 11.0412 37.0913 11.0412 37.0514L11.2558 36.0042L12.1531 36.5227C14.8354 38.0288 16.396 40.6717 17.2738 42.8857C17.5665 41.5095 17.9078 40.1532 18.337 38.8166C12.4457 34.0793 15.7815 25.4623 15.7815 25.4223L16.2009 24.3752L17.0398 25.153C19.5953 27.4469 20.4731 30.5685 20.7461 32.9522C21.5557 31.3964 22.4726 29.8905 23.4578 28.4543C18.8052 24.5048 21.1753 17.8027 21.1753 17.8027L21.5557 16.7256L22.3947 17.4536C24.4234 19.219 25.4476 21.004 25.8279 22.8194C26.0132 23.6071 26.0815 24.3752 26.0132 25.1829C26.9106 24.1458 27.9153 23.1483 28.9198 22.1909C28.793 20.8545 28.7052 15.3492 36.2839 13.8931L37.1716 13.7236L37.2203 14.6311C37.2203 14.6611 37.7276 22.1909 30.2659 23.1085C29.7977 23.4974 29.3685 23.9363 28.9198 24.3653C30.5195 24.046 32.4409 24.1058 34.7623 25.1331L35.533 25.4822L35.1232 26.2202C35.1232 26.2501 31.9924 32.3638 24.4818 29.7208C23.2432 31.5461 22.1409 33.4909 21.234 35.5254C21.0486 35.9144 20.8926 36.3132 20.7266 36.7422L20.6877 36.7919L20.639 36.9216C22.7164 35.3958 26.4424 33.6006 30.7731 35.9343L31.5826 36.3732L31.0266 37.1012C31.0266 37.141 26.2278 43.6936 19.4099 40.4821C18.9515 42.2475 18.5711 44.0327 18.3175 45.8877C19.7903 44.5814 22.0336 43.4045 25.0965 44.1225L26.062 44.3818L25.6328 45.2395C25.6328 45.2793 23.0969 50.3858 18.0151 49.9969C18.0151 50.2163 18.0151 50.4356 18.0151 50.695C18.0151 51.7821 18.0639 52.8292 18.1419 53.9063C19.2929 52.2608 21.39 50.6251 25.2135 50.3659L26.2766 50.3059L25.9937 51.3532C25.9937 51.393 24.3356 57.8558 18.8734 58.6836C19.2929 60.6285 19.8781 62.5434 20.5998 64.3586C20.6877 64.5181 20.7266 64.6178 20.7266 64.6178H20.6877C22.5215 69.1458 25.1841 73.2249 28.52 76.6457C35.0453 83.2681 43.9992 87.3871 53.9286 87.3871C57.4886 87.3871 60.9805 86.8386 64.3164 85.8213C67.7107 84.774 70.9294 83.2582 73.8555 81.2535ZM17.7615 60.5387C17.5469 59.6711 17.3324 58.8132 17.1666 57.9257C16.0741 57.9856 15.0987 57.9257 14.1721 57.7461C15.645 58.594 16.8252 59.5813 17.7615 60.5387ZM16.913 56.3698C16.8837 56.0707 16.8252 55.8212 16.7862 55.5818C15.7327 54.0561 11.5776 48.5607 6.62271 48.1218C7.48104 50.5654 10.2999 56.7189 16.913 56.3698ZM16.5911 47.703C16.6301 47.284 16.6789 46.8752 16.7179 46.4562C16.4643 45.0601 15.4401 40.8711 12.4067 38.5175C12.2604 40.7414 12.4262 45.5488 16.5911 47.703ZM18.9125 37.201C19.0004 36.9017 19.1271 36.5926 19.2148 36.2933C19.3416 35.2462 19.683 30.5887 16.8837 27.2075C16.2887 29.4118 15.6059 34.1291 18.9125 37.201ZM26.0815 27.4969C25.8669 27.796 25.6523 28.0754 25.4379 28.3645C29.8757 29.7009 32.3336 27.4668 33.3091 26.2302C29.6416 24.9836 27.213 26.5095 26.0815 27.4969ZM18.4931 56.6791C18.5321 56.8485 18.5516 56.9981 18.5906 57.1178C21.8387 56.6791 23.4578 53.7468 24.1404 52.0912C20.1903 52.7694 18.9125 55.3226 18.4931 56.6791ZM35.6403 15.6385C30.9877 16.8851 30.4317 20.0468 30.4317 21.483C34.6356 20.7848 35.4744 17.324 35.6403 15.6385ZM24.1796 26.9883C24.4818 25.7415 24.6477 24.435 24.3356 23.1284C24.082 21.9515 23.4578 20.7448 22.3068 19.528C21.9654 21.3133 21.7508 24.6743 24.1796 26.9883ZM29.1734 36.9216C24.8624 35.2361 21.3705 38.1883 20.3658 39.1856C24.5891 41.0009 27.8567 38.3179 29.1734 36.9216ZM23.6919 45.4988C20.7658 45.2793 18.9125 47.3139 18.1419 48.401C20.9607 48.6204 22.814 46.7055 23.6919 45.4988Z" fill="#00C2CB"/>
</g>
<path d="M48.9177 6.68295L51.5024 6.53339C52.7802 6.45354 53.5409 5.70558 53.4727 4.57848C53.4338 3.85044 53.0435 3.32189 52.3804 3.0925C52.8778 2.7933 53.1606 2.26471 53.1216 1.63638C53.063 0.58918 52.2242 -0.0391545 51.005 0.0306625L48.5374 0.180273L48.9177 6.68295ZM49.6784 5.87505L49.5516 3.69091L51.2976 3.5812C52.1266 3.53134 52.6145 3.91037 52.6534 4.59839C52.6924 5.28661 52.2534 5.71554 51.4341 5.76533L49.6784 5.87505ZM49.5029 2.95287L49.3859 0.898358L51.0343 0.798612C51.8049 0.748748 52.2731 1.08784 52.312 1.75606C52.3412 2.40433 51.9317 2.80328 51.1513 2.85314L49.5029 2.95287Z" fill="#00C2CB"/>
<path d="M59.1615 6.97242C60.6928 7.18191 61.7462 6.28421 61.9706 4.55889L62.468 0.729045L61.6682 0.629318L61.1805 4.39919C61.0048 5.71568 60.3514 6.32404 59.2688 6.17449C58.1957 6.03489 57.7081 5.26702 57.874 3.95053L58.3714 0.180503L57.5813 0.0708008L57.0839 3.90055C56.8596 5.6161 57.6399 6.76293 59.1615 6.97242Z" fill="#00C2CB"/>
<path d="M65.0677 7.96106L65.8187 8.2504L67.4768 3.55284L68.3839 7.3527L68.9984 7.5821L72.061 5.26834L70.4029 9.94585L71.1541 10.225L73.3291 4.1014L72.6268 3.84212L69.0081 6.60474L67.9352 2.09672L67.233 1.8374L65.0677 7.96106Z" fill="#00C2CB"/>
<path d="M74.3331 11.9158L76.1961 13.1325C77.8444 14.1997 79.6488 13.8008 80.6633 12.175C81.6777 10.5495 81.268 8.7043 79.6196 7.63732L77.7663 6.42041L74.3331 11.9158ZM75.4254 11.6963L78.0296 7.51764L79.1806 8.27556C80.4292 9.08345 80.7511 10.4796 79.9707 11.7264C79.1904 12.973 77.8347 13.2723 76.6056 12.4644L75.4254 11.6963Z" fill="#00C2CB"/>
<path d="M81.4582 17.0573L84.3549 19.8398L84.8622 19.2914L82.5603 17.0672L84.0137 15.4815L86.0814 17.4661L86.5887 16.9177L84.5208 14.9329L85.9059 13.437L88.1395 15.5813L88.6467 15.0227L85.8278 12.3198L81.4582 17.0573Z" fill="#00C2CB"/>
<path d="M87.7466 24.2252C88.5757 25.3722 89.6583 25.6914 90.5557 25.0131C91.3067 24.4446 91.3848 23.5869 90.7312 22.0012C90.2338 20.8044 90.2533 20.2657 90.6825 19.9467C91.1701 19.5777 91.8041 19.787 92.3406 20.5352C92.9064 21.303 92.8672 22.0709 92.2722 22.5496L92.7404 23.208C93.7257 22.4401 93.8133 21.2433 92.955 20.0664C92.126 18.9293 91.0531 18.6203 90.1849 19.2685C89.4047 19.8768 89.3753 20.7845 90.0192 22.2904C90.4776 23.3975 90.5068 23.996 90.0386 24.355C89.5315 24.734 88.8974 24.5045 88.3611 23.7566C87.7661 22.9487 87.7466 22.0811 88.3903 21.5623L87.9221 20.9042C86.9174 21.672 86.8395 22.9786 87.7466 24.2252Z" fill="#00C2CB"/>
<path d="M93.6432 35.5927C94.1603 37.0786 95.4673 37.9662 96.9302 37.8567L96.6474 37.0388C95.633 37.0488 94.765 36.3904 94.4041 35.3434C93.9359 33.9769 94.5698 32.6505 95.9549 32.1419C97.3497 31.6432 98.6567 32.2615 99.1249 33.6278C99.476 34.6452 99.2419 35.6723 98.481 36.3108L98.764 37.1284C99.9442 36.2508 100.373 34.7748 99.8758 33.3287C99.2517 31.5235 97.496 30.6957 95.6819 31.3539C93.8676 32.0122 93.019 33.7774 93.6432 35.5927Z" fill="#00C2CB"/>
<path d="M95.4441 41.9361L95.5806 42.744L101.862 41.587L101.716 40.7793L95.4441 41.9361Z" fill="#00C2CB"/>
<path d="M96.0956 46.5674L96.125 47.3852L98.2219 47.3155L98.261 48.7017C98.3097 50.168 99.1682 51.0954 100.485 51.0456C101.782 51.0057 102.592 50.0282 102.543 48.5522L102.465 46.3481L96.0956 46.5674ZM98.9633 47.2855L101.733 47.1959L101.772 48.5621C101.811 49.6094 101.353 50.1779 100.446 50.2078C99.5388 50.2377 99.0412 49.7092 99.012 48.6619L98.9633 47.2855Z" fill="#00C2CB"/>
<path d="M96.0222 54.3848L95.4565 58.4041L96.1979 58.5138L96.6464 55.3024L98.7532 55.6115L98.3534 58.4937L99.0849 58.5935L99.4849 55.7212L101.475 56.0105L101.045 59.1222L101.777 59.222L102.323 55.3123L96.0222 54.3848Z" fill="#00C2CB"/>
<path d="M94.6895 61.7349L94.4357 62.5127L96.6011 63.2507L96.1622 64.6172L93.4993 65.385L93.1971 66.3226L95.9476 65.5346C95.8697 66.5121 96.3573 67.29 97.3326 67.6191C98.5323 68.028 99.5468 67.4395 99.9662 66.1531L100.737 63.7993L94.6895 61.7349ZM97.3326 63.5L99.7516 64.3278L99.2737 65.8239C98.9713 66.7214 98.3568 67.0904 97.5862 66.8312C96.8158 66.5619 96.5523 65.8936 96.845 64.9961L97.3326 63.5Z" fill="#00C2CB"/>
</g>
</svg>
