<svg width="55" height="47" viewBox="0 0 55 47" fill="none" xmlns="http://www.w3.org/2000/svg">
<g clip-path="url(#clip0_46423_692)">
<mask id="mask0_46423_692" style="mask-type:luminance" maskUnits="userSpaceOnUse" x="0" y="6" width="49" height="41">
<path d="M0.833252 6.46875H48.8333V46.4688H0.833252V6.46875Z" fill="white"/>
</mask>
<g mask="url(#mask0_46423_692)">
<path d="M10.2603 33.9531C9.79159 33.1198 7.45825 29.5052 2.22909 29.6875C3.20825 31.1563 6.18221 34.8437 10.3072 34.0781L10.2603 33.9531ZM25.7499 18.8802H28.2812V21.5729H25.5833V18.8802H25.7499ZM29.5103 18.8802H32.0416V21.5729H29.3437V18.8802H29.5103ZM32.0416 22.8125V25.3438H29.3437V22.6458H32.0416V22.8125ZM28.1093 25.3438H25.5728V22.6458H28.2708V25.3438H28.1093ZM21.0937 8.91667C20.8749 9.01042 20.6405 8.91667 20.5468 8.69271C20.4583 8.49479 20.5468 8.24479 20.7655 8.15625C22.0364 7.59375 23.3489 7.17708 24.703 6.89063C26.0624 6.625 27.427 6.46875 28.8072 6.46875C34.3437 6.46875 39.3437 8.71354 42.953 12.3281C46.5885 15.9427 48.8124 20.9427 48.8124 26.4635C48.8124 29.1771 48.2655 31.8438 47.2135 34.2917C46.177 36.7344 44.651 38.9688 42.6926 40.849C42.6041 40.9375 42.5103 40.9844 42.3958 40.9844C42.1666 40.9844 41.9843 40.8021 41.9843 40.5729V22.1302L29.1041 11.1302L15.6458 22.1406V33.599C16.7291 33.3021 17.3801 32.8333 17.9583 32.4219C19.453 31.375 20.4687 30.6563 25.7864 33.0521C26.8333 33.5208 28.203 33.349 29.5833 33.0729C29.4687 32.5729 29.2864 31.7188 29.2708 31.2708V31.2031C29.2499 30.4531 29.2187 29.4167 30.5624 29.1042C30.7968 29.0521 31.0155 29.1875 31.0624 29.401C31.0624 29.4167 31.0833 29.4271 31.0833 29.4479C31.1041 29.6667 31.401 31.6406 31.8801 32.5938C32.0155 32.5729 32.1458 32.5469 32.2812 32.526C32.2603 32.1146 32.1978 31.4115 32.052 30.974C31.9843 30.7708 31.8958 30.4531 31.8333 30.0885C31.7655 29.6094 31.7343 29.0729 31.8333 28.5938C31.9478 28.0469 32.2135 27.5781 32.7603 27.375C32.8489 27.3542 32.927 27.3281 33.0312 27.3073C33.2343 27.2813 33.4322 27.4063 33.4791 27.6042C33.4791 27.6042 33.7968 28.7396 34.1145 29.8854C34.2083 30.2344 34.3333 30.5521 34.4478 30.8542L34.5155 31.0104C34.5364 30.849 34.5468 30.6719 34.5468 30.5313C34.5468 30.349 34.5468 30.1302 34.526 29.8958C34.4791 28.6979 34.4114 27.25 35.9478 26.849C36.1666 26.8021 36.3958 26.9323 36.4478 27.1458C36.4478 27.1719 36.4478 27.1927 36.4635 27.2135C36.4635 27.2135 36.5624 28.3906 36.6978 28.8906C36.7603 29.1771 36.8801 29.6771 36.9426 30.1875C37.0312 30.7344 37.078 31.3177 36.9635 31.7396C36.8697 32.125 36.6197 33.1875 36.427 34.0677L36.6458 33.849C37.3697 33.1667 38.0676 32.5156 38.453 32.1823C39.6718 31.1458 41.3489 31.8802 41.3697 31.8802C41.3958 31.901 41.4374 31.9115 41.4635 31.9479C41.6458 32.1042 41.6666 32.3542 41.5103 32.5365C41.4947 32.5521 36.7135 38.0469 35.5624 38.8854C35.5364 38.9115 35.4687 38.9531 35.401 38.9688V38.9896C35.2187 39.0156 34.8541 39.0833 34.3333 39.1927C32.953 39.4375 30.5833 39.8542 29.6353 40.3021C26.5833 41.7917 23.1353 40.8698 20.7499 40.2344C20.1614 40.0833 19.6458 39.9375 19.2343 39.8698C18.9635 39.8229 18.6978 39.7865 18.4374 39.776C18.1666 39.7552 17.8905 39.7552 17.6197 39.7552C17.401 39.776 17.2083 39.6042 17.1874 39.375C17.1874 39.1406 17.3541 38.9583 17.5937 38.9427C17.8905 38.9219 18.1978 38.9427 18.4947 38.9583C18.7916 38.9792 19.0989 39.0104 19.3958 39.0573C19.8489 39.1406 20.3749 39.2865 20.9583 39.4375C23.2239 40.0521 26.5051 40.9271 29.2812 39.5729C30.3228 39.0573 32.7812 38.625 34.2083 38.375C34.7083 38.2865 35.0728 38.224 35.1874 38.1927C35.526 38.099 39.2083 33.9427 40.4739 32.4948C40.0468 32.4115 39.4583 32.4271 38.9895 32.8125C38.6041 33.151 37.9426 33.7813 37.2239 34.4635C36.8228 34.8438 36.427 35.2292 36.0416 35.5729C36.026 35.5937 36.0155 35.6042 35.9947 35.625C35.2291 36.3438 34.5676 36.9063 34.3176 36.9844C34.1353 37.0313 33.4635 37.1667 32.6874 37.3021C32.6666 37.3021 32.6562 37.3021 32.6562 37.3021C32.2447 37.3698 31.8228 37.4375 31.4166 37.4635C30.8541 37.5521 30.3124 37.5781 29.9687 37.5521C29.9218 37.5521 29.8749 37.5313 29.8333 37.5208C29.7655 37.5208 29.7187 37.5 29.6822 37.4948C29.2708 37.3125 28.4322 36.8385 28.0312 36.6094C26.8333 37.1563 25.6145 37.9635 25.6145 37.9635C25.4322 38.0781 25.1614 38.0313 25.0468 37.849C24.9322 37.6458 24.9791 37.3958 25.1614 37.2813C26.2655 36.5521 28.0312 35.5 29.4114 35.2969C30.1405 35.2031 31.4947 34.8958 32.7135 34.5781C33.8645 34.2604 34.8645 33.974 34.9947 33.875C35.0155 33.8594 35.0468 33.8125 35.0624 33.7604C35.0833 33.7135 35.0833 33.6771 35.0624 33.6458C35.0468 33.599 34.9947 33.5521 34.901 33.4948C34.6718 33.3594 34.2395 33.2656 33.5208 33.2656C32.9843 33.2656 32.4062 33.349 31.7812 33.4479C31.7655 33.4635 31.7655 33.4635 31.7551 33.4635C31.3905 33.5313 31.026 33.6198 30.651 33.6875C28.8489 34.0885 26.9843 34.4792 25.4478 33.8021C20.5676 31.6042 19.703 32.1979 18.4374 33.099C17.7343 33.599 16.9218 34.1667 15.4062 34.5C15.3749 34.5208 15.3176 34.5208 15.2916 34.5208C15.2708 34.5208 15.2603 34.5208 15.2395 34.5208C15.0103 34.5208 14.828 34.3385 14.828 34.1094V21.9375C14.828 21.8021 14.8958 21.6875 14.9895 21.6042L28.8489 10.2865C29.0103 10.1302 29.2499 10.151 29.3958 10.3073L42.6718 21.6198C42.7603 21.7083 42.8072 21.8229 42.8072 21.9375V39.5729C44.3645 37.9219 45.5885 36.026 46.4739 33.974C47.4687 31.625 48.0103 29.0625 48.0103 26.4635C48.0103 21.1719 45.8593 16.375 42.3749 12.9063C38.9114 9.43229 34.1041 7.30208 28.8072 7.30208C27.4739 7.30208 26.1614 7.4375 24.8541 7.70833C23.578 7.96354 22.3124 8.38542 21.0937 8.91667ZM32.5103 35.4792C32.3593 35.6823 31.9635 36.1771 31.4687 36.651C31.7551 36.6198 32.052 36.5833 32.328 36.5365L33.0103 35.3542L32.9166 35.375C32.7812 35.401 32.6458 35.4479 32.5103 35.4792ZM29.9322 36.7135C30.3801 36.5365 30.8333 36.1719 31.1666 35.7969C30.5364 35.9479 29.9322 36.0625 29.5364 36.1094C29.3853 36.1406 29.203 36.1771 29.0208 36.2292C29.3437 36.4167 29.6926 36.6094 29.9322 36.7135ZM34.1458 35.026L33.3749 36.3438C33.7187 36.276 33.9895 36.2292 34.0937 36.1875C34.1926 36.1615 34.7083 35.6875 35.3593 35.0833L35.4947 34.5208C35.3437 34.6354 34.8228 34.8385 34.1458 35.026ZM35.776 33.2552C35.9374 32.5521 36.1093 31.8542 36.177 31.5573C36.2655 31.2708 36.2239 30.7917 36.1562 30.3385C36.0728 29.8229 35.9583 29.3594 35.9114 29.1042C35.8228 28.8021 35.7551 28.3073 35.7083 27.901C35.2968 28.3333 35.3228 29.1667 35.3593 29.8698C35.3801 30.099 35.3905 30.3385 35.3801 30.5521C35.3593 31.2969 35.1145 32.1302 34.9322 32.6302C35.0833 32.6615 35.1978 32.7292 35.3124 32.7865C35.5468 32.9167 35.6874 33.0833 35.776 33.2552ZM34.0468 32.4688C34.0676 32.0833 33.8853 31.651 33.703 31.1719C33.5885 30.8385 33.453 30.4896 33.3541 30.1302C33.1718 29.4635 32.9739 28.7656 32.8593 28.3229C32.7603 28.4375 32.703 28.5938 32.6562 28.776C32.5885 29.1406 32.6093 29.5885 32.677 29.974C32.7239 30.2708 32.7916 30.5573 32.8593 30.724C33.0208 31.2187 33.1093 31.9896 33.1249 32.4583C33.2603 32.4583 33.3958 32.4375 33.5312 32.4375C33.7135 32.4479 33.8749 32.4479 34.0468 32.4688ZM31.0624 32.7656C30.7291 31.9479 30.4791 30.7813 30.3645 30.099C30.0728 30.3854 30.0937 30.8281 30.0937 31.1615L30.1145 31.25C30.1145 31.6354 30.2968 32.4271 30.401 32.901L30.4895 32.8802C30.677 32.849 30.8801 32.8021 31.0624 32.7656ZM39.4374 42.4323C39.6197 42.3177 39.8905 42.3646 40.0051 42.5469C40.1405 42.75 40.0937 43 39.8905 43.1146C38.2603 44.2135 36.4739 45.0417 34.6041 45.6146C32.7343 46.1823 30.7864 46.4688 28.8072 46.4688C23.2916 46.4688 18.2916 44.2344 14.6666 40.6198C13.0155 38.9531 11.651 37.0052 10.6458 34.8542C4.85929 36.0938 1.16659 29.5625 1.16659 29.5417L0.848877 28.9844L1.48429 28.9219C3.03638 28.7656 4.38013 28.9375 5.53117 29.2656C3.29679 27.7031 2.56763 24.8125 2.56763 24.8073L2.45304 24.3281L2.94784 24.2969C5.46346 24.1615 7.65096 26.1771 8.83325 27.5469C8.81242 27.1823 8.81242 26.8177 8.81242 26.474C8.81242 26.2448 8.81242 26.0208 8.81242 25.7917C4.91659 24.1823 5.89575 19.3698 5.89575 19.349L6.01034 18.8021L6.4895 19.0729C7.92179 19.8594 8.75513 21.2396 9.22388 22.3958C9.38013 21.6771 9.56242 20.9687 9.79159 20.2708C6.64575 17.7969 8.427 13.2969 8.427 13.276L8.65096 12.7292L9.09888 13.1354C10.4635 14.3333 10.9322 15.9635 11.078 17.2083C11.5103 16.3958 11.9999 15.6094 12.526 14.8594C10.0416 12.7969 11.3072 9.29688 11.3072 9.29688L11.5103 8.73438L11.9583 9.11458C13.0416 10.0365 13.5885 10.9687 13.7916 11.9167C13.8905 12.3281 13.927 12.7292 13.8905 13.151C14.3697 12.6094 14.9062 12.0885 15.4426 11.5885C15.3749 10.8906 15.328 8.01563 19.3749 7.25521L19.8489 7.16667L19.8749 7.64063C19.8749 7.65625 20.1458 11.5885 16.1614 12.0677C15.9114 12.2708 15.6822 12.5 15.4426 12.724C16.2968 12.5573 17.3228 12.5885 18.5624 13.125L18.9739 13.3073L18.7551 13.6927C18.7551 13.7083 17.0833 16.901 13.0728 15.5208C12.4114 16.474 11.8228 17.4896 11.3385 18.5521C11.2395 18.7552 11.1562 18.9635 11.0676 19.1875L11.0468 19.2135L11.0208 19.2813C12.1301 18.4844 14.1197 17.5469 16.4322 18.7656L16.8645 18.9948L16.5676 19.375C16.5676 19.3958 14.0051 22.8177 10.3645 21.1406C10.1197 22.0625 9.91658 22.9948 9.78117 23.9635C10.5676 23.2813 11.7655 22.6667 13.401 23.0417L13.9166 23.1771L13.6874 23.625C13.6874 23.6458 12.3333 26.3125 9.61971 26.1094C9.61971 26.224 9.61971 26.3385 9.61971 26.474C9.61971 27.0417 9.64575 27.5885 9.68742 28.151C10.302 27.2917 11.4218 26.4375 13.4635 26.3021L14.0312 26.2708L13.8801 26.8177C13.8801 26.8385 12.9947 30.2135 10.078 30.6458C10.302 31.6615 10.6145 32.6615 10.9999 33.6094C11.0468 33.6927 11.0676 33.7448 11.0676 33.7448H11.0468C12.026 36.1094 13.4478 38.2396 15.2291 40.026C18.7135 43.4844 23.4947 45.6354 28.7968 45.6354C30.6978 45.6354 32.5624 45.349 34.3437 44.8177C36.1562 44.2708 37.8749 43.4792 39.4374 42.4323ZM9.48429 31.6146C9.36971 31.1615 9.25513 30.7135 9.16659 30.25C8.58325 30.2813 8.06242 30.25 7.56763 30.1563C8.35409 30.599 8.98429 31.1146 9.48429 31.6146ZM9.03117 29.4375C9.01554 29.2813 8.98429 29.151 8.96346 29.026C8.40096 28.2292 6.18221 25.3594 3.53638 25.1302C3.99471 26.4063 5.49992 29.6198 9.03117 29.4375ZM8.85929 24.9115C8.88013 24.6927 8.90617 24.4792 8.927 24.2604C8.79159 23.5313 8.24471 21.3437 6.62492 20.1146C6.54679 21.276 6.63534 23.7865 8.85929 24.9115ZM10.0989 19.4271C10.1458 19.2708 10.2135 19.1094 10.2603 18.9531C10.328 18.4063 10.5103 15.974 9.01554 14.2083C8.69784 15.3594 8.33325 17.8229 10.0989 19.4271ZM13.927 14.3594C13.8124 14.5156 13.6978 14.6615 13.5833 14.8125C15.953 15.5104 17.2655 14.3437 17.7864 13.6979C15.828 13.0469 14.5312 13.8437 13.927 14.3594ZM9.87492 29.599C9.89575 29.6875 9.90617 29.7656 9.927 29.8281C11.6614 29.599 12.526 28.0677 12.8905 27.2031C10.7812 27.5573 10.0989 28.8906 9.87492 29.599ZM19.0312 8.16667C16.5468 8.81771 16.2499 10.4688 16.2499 11.2188C18.4947 10.8542 18.9426 9.04687 19.0312 8.16667ZM12.9114 14.0938C13.0728 13.4427 13.1614 12.7604 12.9947 12.0781C12.8593 11.4635 12.526 10.8333 11.9114 10.1979C11.7291 11.1302 11.6145 12.8854 12.9114 14.0938ZM15.578 19.2813C13.276 18.401 11.4114 19.9427 10.8749 20.4635C13.1301 21.4115 14.8749 20.0104 15.578 19.2813ZM12.651 23.7604C11.0885 23.6458 10.0989 24.7083 9.68742 25.276C11.1926 25.3906 12.1822 24.3906 12.651 23.7604Z" fill="#00C2CB"/>
</g>
<path d="M26.1211 3.48979L27.5013 3.41166C28.1836 3.37 28.5898 2.97937 28.5534 2.39083C28.5326 2.01062 28.3242 1.73458 27.9701 1.61479C28.2357 1.45854 28.3867 1.1825 28.3659 0.854371C28.3346 0.307496 27.8867 -0.020629 27.2357 0.0158297L25.918 0.093955L26.1211 3.48979ZM26.5273 3.06791L26.4596 1.92729L27.3919 1.87C27.8346 1.84396 28.0951 2.04187 28.1159 2.40125C28.1367 2.76062 27.9023 2.98458 27.4648 3.01062L26.5273 3.06791ZM26.4336 1.54187L26.3711 0.468955L27.2513 0.416871C27.6628 0.39083 27.9128 0.567912 27.9336 0.916871C27.9492 1.25541 27.7305 1.46375 27.3138 1.48979L26.4336 1.54187Z" fill="#00C2CB"/>
<path d="M31.5911 3.64099C32.4088 3.75036 32.9713 3.28161 33.0911 2.38057L33.3567 0.38057L32.9296 0.328486L32.6692 2.29724C32.5754 2.98474 32.2265 3.30244 31.6484 3.22432C31.0754 3.1514 30.815 2.75036 30.9036 2.06286L31.1692 0.0941114L30.7473 0.0368195L30.4817 2.03682C30.3619 2.93265 30.7786 3.53161 31.5911 3.64099Z" fill="#00C2CB"/>
<path d="M34.7449 4.15751L35.1459 4.30855L36.0313 1.85543L36.5157 3.8398L36.8438 3.9596L38.4792 2.75126L37.5938 5.19397L37.9949 5.3398L39.1563 2.14189L38.7813 2.00647L36.849 3.44918L36.2761 1.09501L35.9011 0.959595L34.7449 4.15751Z" fill="#00C2CB"/>
<path d="M39.6924 6.22293L40.6872 6.85834C41.5674 7.41563 42.5309 7.2073 43.0726 6.35834C43.6143 5.50938 43.3955 4.54584 42.5153 3.98855L41.5257 3.35313L39.6924 6.22293ZM40.2757 6.10834L41.6663 3.92605L42.2809 4.32188C42.9476 4.74376 43.1195 5.47293 42.7028 6.12397C42.2861 6.77501 41.5622 6.93126 40.9059 6.50938L40.2757 6.10834Z" fill="#00C2CB"/>
<path d="M43.4971 8.90729L45.0439 10.3604L45.3148 10.074L44.0856 8.9125L44.8617 8.08438L45.9658 9.12083L46.2367 8.83438L45.1325 7.79792L45.8721 7.01667L47.0648 8.13646L47.3356 7.84479L45.8304 6.43333L43.4971 8.90729Z" fill="#00C2CB"/>
<path d="M46.855 12.6506C47.2977 13.2496 47.8758 13.4163 48.355 13.0621C48.756 12.7652 48.7977 12.3173 48.4487 11.4892C48.1831 10.8642 48.1935 10.5829 48.4227 10.4163C48.6831 10.2236 49.0216 10.3329 49.3081 10.7236C49.6102 11.1246 49.5893 11.5256 49.2716 11.7756L49.5216 12.1194C50.0477 11.7184 50.0945 11.0934 49.6362 10.4788C49.1935 9.88502 48.6206 9.72356 48.157 10.0621C47.7404 10.3798 47.7247 10.8538 48.0685 11.6402C48.3133 12.2184 48.3289 12.5309 48.0789 12.7184C47.8081 12.9163 47.4695 12.7965 47.1831 12.4059C46.8654 11.984 46.855 11.5309 47.1987 11.26L46.9487 10.9163C46.4122 11.3173 46.3706 11.9996 46.855 12.6506Z" fill="#00C2CB"/>
<path d="M50.0037 18.5871C50.2798 19.3631 50.9777 19.8266 51.7589 19.7694L51.6079 19.3423C51.0662 19.3475 50.6027 19.0037 50.41 18.4569C50.16 17.7433 50.4985 17.0506 51.2381 16.785C51.9829 16.5246 52.6808 16.8475 52.9308 17.561C53.1183 18.0923 52.9933 18.6287 52.587 18.9621L52.7381 19.3891C53.3683 18.9308 53.5975 18.16 53.3318 17.4048C52.9985 16.4621 52.061 16.0298 51.0923 16.3735C50.1235 16.7173 49.6704 17.6391 50.0037 18.5871Z" fill="#00C2CB"/>
<path d="M50.9653 21.8998L51.0382 22.3217L54.3924 21.7175L54.3143 21.2957L50.9653 21.8998Z" fill="#00C2CB"/>
<path d="M51.3132 24.3183L51.3289 24.7454L52.4486 24.709L52.4695 25.4329C52.4955 26.1986 52.9539 26.6829 53.657 26.6569C54.3497 26.6361 54.782 26.1256 54.7559 25.3548L54.7143 24.2038L51.3132 24.3183ZM52.8445 24.6933L54.3236 24.6465L54.3445 25.36C54.3653 25.9069 54.1205 26.2038 53.6361 26.2194C53.1518 26.235 52.8861 25.959 52.8705 25.4121L52.8445 24.6933Z" fill="#00C2CB"/>
<path d="M51.274 28.4008L50.9719 30.4998L51.3678 30.5571L51.6073 28.88L52.7323 29.0414L52.5188 30.5466L52.9094 30.5987L53.123 29.0987L54.1855 29.2498L53.9563 30.8748L54.3469 30.9269L54.6386 28.8852L51.274 28.4008Z" fill="#00C2CB"/>
<path d="M50.5623 32.2391L50.4268 32.6453L51.5831 33.0307L51.3487 33.7443L49.9268 34.1453L49.7654 34.6349L51.2341 34.2234C51.1925 34.7339 51.4529 35.1401 51.9737 35.312C52.6143 35.5255 53.156 35.2182 53.38 34.5464L53.7914 33.3172L50.5623 32.2391ZM51.9737 33.1609L53.2654 33.5932L53.0102 34.3745C52.8487 34.8432 52.5206 35.0359 52.1091 34.9005C51.6977 34.7599 51.557 34.4109 51.7133 33.9422L51.9737 33.1609Z" fill="#00C2CB"/>
</g>
<defs>
<clipPath id="clip0_46423_692">
<rect width="55" height="47" fill="white"/>
</clipPath>
</defs>
</svg>
